<svg version="1.1" xmlns="http://www.w3.org/2000/svg" xmlns:xlink="http://www.w3.org/1999/xlink" width="19.04" height="20" viewBox="0,0,19.04,20"><g transform="translate(-310.48,-170)"><g stroke="none" stroke-miterlimit="10"><path d="M318.825,190c-0.45,0 -0.83733,-0.15 -1.162,-0.45c-0.32467,-0.3 -0.52067,-0.66667 -0.588,-1.1l-0.225,-1.65c-0.21667,-0.08333 -0.42067,-0.18333 -0.612,-0.3c-0.19133,-0.11667 -0.379,-0.24167 -0.563,-0.375l-1.55,0.65c-0.41667,0.18333 -0.83333,0.2 -1.25,0.05c-0.41667,-0.15 -0.74167,-0.41667 -0.975,-0.8l-1.175,-2.05c-0.23333,-0.38333 -0.3,-0.79167 -0.2,-1.225c0.1,-0.43333 0.325,-0.79167 0.675,-1.075l1.325,-1c-0.01667,-0.11667 -0.025,-0.22933 -0.025,-0.338v-0.675c0,-0.108 0.00833,-0.22033 0.025,-0.337l-1.325,-1c-0.35,-0.28333 -0.575,-0.64167 -0.675,-1.075c-0.1,-0.43333 -0.03333,-0.84167 0.2,-1.225l1.175,-2.05c0.23333,-0.38333 0.55833,-0.65 0.975,-0.8c0.41667,-0.15 0.83333,-0.13333 1.25,0.05l1.55,0.65c0.18333,-0.13333 0.375,-0.25833 0.575,-0.375c0.2,-0.11667 0.4,-0.21667 0.6,-0.3l0.225,-1.65c0.06667,-0.43333 0.26267,-0.8 0.588,-1.1c0.32533,-0.3 0.71267,-0.45 1.162,-0.45h2.35c0.45,0 0.83767,0.15 1.163,0.45c0.32533,0.3 0.521,0.66667 0.587,1.1l0.225,1.65c0.21667,0.08333 0.421,0.18333 0.613,0.3c0.192,0.11667 0.37933,0.24167 0.562,0.375l1.55,-0.65c0.41667,-0.18333 0.83333,-0.2 1.25,-0.05c0.41667,0.15 0.74167,0.41667 0.975,0.8l1.175,2.05c0.23333,0.38333 0.3,0.79167 0.2,1.225c-0.1,0.43333 -0.325,0.79167 -0.675,1.075l-1.325,1c0.01667,0.11667 0.025,0.22933 0.025,0.338v0.674c0,0.10867 -0.01667,0.22133 -0.05,0.338l1.325,1c0.35,0.28333 0.575,0.64167 0.675,1.075c0.1,0.43333 0.03333,0.84167 -0.2,1.225l-1.2,2.05c-0.23333,0.38333 -0.55833,0.65 -0.975,0.8c-0.41667,0.15 -0.83333,0.13333 -1.25,-0.05l-1.5,-0.65c-0.18333,0.13333 -0.375,0.25833 -0.575,0.375c-0.2,0.11667 -0.4,0.21667 -0.6,0.3l-0.225,1.65c-0.06667,0.43333 -0.26233,0.8 -0.587,1.1c-0.32467,0.3 -0.71233,0.45 -1.163,0.45zM320.05,183.5c0.96667,0 1.79167,-0.34167 2.475,-1.025c0.68333,-0.68333 1.025,-1.50833 1.025,-2.475c0,-0.96667 -0.34167,-1.79167 -1.025,-2.475c-0.68333,-0.68333 -1.50833,-1.025 -2.475,-1.025c-0.98333,0 -1.81267,0.34167 -2.488,1.025c-0.67533,0.68333 -1.01267,1.50833 -1.012,2.475c0.00067,0.96667 0.33833,1.79167 1.013,2.475c0.67467,0.68333 1.50367,1.025 2.487,1.025" fill="#ffffff"/><path d="M313,189c-0.55,0 -1.02067,-0.19567 -1.412,-0.587c-0.39133,-0.39133 -0.58733,-0.86233 -0.588,-1.413v-14c0,-0.55 0.196,-1.02067 0.588,-1.412c0.392,-0.39133 0.86267,-0.58733 1.412,-0.588h14c0.55,0 1.021,0.196 1.413,0.588c0.392,0.392 0.58767,0.86267 0.587,1.412v14c0,0.55 -0.19567,1.021 -0.587,1.413c-0.39133,0.392 -0.86233,0.58767 -1.413,0.587z" fill-opacity="0.00392" fill="#000000"/></g></g></svg>