<svg version="1.1" xmlns="http://www.w3.org/2000/svg" xmlns:xlink="http://www.w3.org/1999/xlink" width="19.00001" height="18" viewBox="0,0,19.00001,18"><g transform="translate(-311,-171)"><g stroke="none" stroke-miterlimit="10"><path d="M313,182c-0.28333,0 -0.52067,-0.096 -0.712,-0.288c-0.19133,-0.192 -0.28733,-0.42933 -0.288,-0.712c-0.00067,-0.28267 0.09533,-0.52 0.288,-0.712c0.19267,-0.192 0.43,-0.288 0.712,-0.288h5c0.28333,0 0.521,0.096 0.713,0.288c0.192,0.192 0.28767,0.42933 0.287,0.712c-0.00067,0.28267 -0.09667,0.52033 -0.288,0.713c-0.19133,0.19267 -0.42867,0.28833 -0.712,0.287zM313,178c-0.28333,0 -0.52067,-0.096 -0.712,-0.288c-0.19133,-0.192 -0.28733,-0.42933 -0.288,-0.712c-0.00067,-0.28267 0.09533,-0.52 0.288,-0.712c0.19267,-0.192 0.43,-0.288 0.712,-0.288h9c0.28333,0 0.521,0.096 0.713,0.288c0.192,0.192 0.28767,0.42933 0.287,0.712c-0.00067,0.28267 -0.09667,0.52033 -0.288,0.713c-0.19133,0.19267 -0.42867,0.28833 -0.712,0.287zM313,174c-0.28333,0 -0.52067,-0.096 -0.712,-0.288c-0.19133,-0.192 -0.28733,-0.42933 -0.288,-0.712c-0.00067,-0.28267 0.09533,-0.52 0.288,-0.712c0.19267,-0.192 0.43,-0.288 0.712,-0.288h9c0.28333,0 0.521,0.096 0.713,0.288c0.192,0.192 0.28767,0.42933 0.287,0.712c-0.00067,0.28267 -0.09667,0.52033 -0.288,0.713c-0.19133,0.19267 -0.42867,0.28833 -0.712,0.287zM321,187v-1.65c0,-0.13333 0.025,-0.26233 0.075,-0.387c0.05,-0.12467 0.125,-0.23733 0.225,-0.338l5.225,-5.2c0.15,-0.15 0.31667,-0.25833 0.5,-0.325c0.18333,-0.06667 0.36667,-0.1 0.55,-0.1c0.2,0 0.39167,0.03767 0.575,0.113c0.18333,0.07533 0.35,0.18767 0.5,0.337l0.925,0.925c0.13333,0.15 0.23767,0.31667 0.313,0.5c0.07533,0.18333 0.11267,0.36667 0.112,0.55c-0.00067,0.18333 -0.034,0.371 -0.1,0.563c-0.066,0.192 -0.17433,0.36267 -0.325,0.512l-5.2,5.2c-0.1,0.1 -0.21233,0.175 -0.337,0.225c-0.12467,0.05 -0.254,0.075 -0.388,0.075h-1.65c-0.28333,0 -0.52067,-0.09567 -0.712,-0.287c-0.19133,-0.19133 -0.28733,-0.429 -0.288,-0.713M327.575,182.4l0.925,-0.975l-0.925,-0.925l-0.95,0.95zM322.5,186.5h0.95l3.025,-3.05l-0.45,-0.475l-0.475,-0.45l-3.05,3.025zM322.5,186.5v-0.95l3.05,-3.025l0.925,0.925l-3.025,3.05z" fill="#ffffff"/><path d="M313,189c-0.55,0 -1.02067,-0.19567 -1.412,-0.587c-0.39133,-0.39133 -0.58733,-0.86233 -0.588,-1.413v-14c0,-0.55 0.196,-1.02067 0.588,-1.412c0.392,-0.39133 0.86267,-0.58733 1.412,-0.588h14c0.55,0 1.021,0.196 1.413,0.588c0.392,0.392 0.58767,0.86267 0.587,1.412v14c0,0.55 -0.19567,1.021 -0.587,1.413c-0.39133,0.392 -0.86233,0.58767 -1.413,0.587z" fill-opacity="0.00392" fill="#000000"/></g></g></svg>