<svg version="1.1" xmlns="http://www.w3.org/2000/svg" xmlns:xlink="http://www.w3.org/1999/xlink" width="18.00001" height="18.00001" viewBox="0,0,18.00001,18.00001"><g transform="translate(-311,-171)"><g stroke="none" stroke-miterlimit="10"><path d="M313,189c-0.55,0 -1.02067,-0.19567 -1.412,-0.587c-0.39133,-0.39133 -0.58733,-0.86233 -0.588,-1.413v-14c0,-0.55 0.196,-1.02067 0.588,-1.412c0.392,-0.39133 0.86267,-0.58733 1.412,-0.588h5c0.28333,0 0.521,0.096 0.713,0.288c0.192,0.192 0.28767,0.42933 0.287,0.712c-0.00067,0.28267 -0.09667,0.52033 -0.288,0.713c-0.19133,0.19267 -0.42867,0.28833 -0.712,0.287h-5v14h14v-5c0,-0.28333 0.096,-0.52067 0.288,-0.712c0.192,-0.19133 0.42933,-0.28733 0.712,-0.288c0.28267,-0.00067 0.52033,0.09533 0.713,0.288c0.19267,0.19267 0.28833,0.43 0.287,0.712v5c0,0.55 -0.19567,1.021 -0.587,1.413c-0.39133,0.392 -0.86233,0.58767 -1.413,0.587zM324,176h-2c-0.28333,0 -0.52067,-0.096 -0.712,-0.288c-0.19133,-0.192 -0.28733,-0.42933 -0.288,-0.712c-0.00067,-0.28267 0.09533,-0.52 0.288,-0.712c0.19267,-0.192 0.43,-0.288 0.712,-0.288h2v-2c0,-0.28333 0.096,-0.52067 0.288,-0.712c0.192,-0.19133 0.42933,-0.28733 0.712,-0.288c0.28267,-0.00067 0.52033,0.09533 0.713,0.288c0.19267,0.19267 0.28833,0.43 0.287,0.712v2h2c0.28333,0 0.521,0.096 0.713,0.288c0.192,0.192 0.28767,0.42933 0.287,0.712c-0.00067,0.28267 -0.09667,0.52033 -0.288,0.713c-0.19133,0.19267 -0.42867,0.28833 -0.712,0.287h-2v2c0,0.28333 -0.096,0.521 -0.288,0.713c-0.192,0.192 -0.42933,0.28767 -0.712,0.287c-0.28267,-0.00067 -0.52,-0.09667 -0.712,-0.288c-0.192,-0.19133 -0.288,-0.42867 -0.288,-0.712z" fill="#ffffff"/><path d="M313,189c-0.55,0 -1.02066,-0.19566 -1.412,-0.587c-0.39134,-0.39133 -0.58733,-0.86234 -0.588,-1.413v-14c0,-0.55 0.196,-1.02067 0.588,-1.412c0.392,-0.39133 0.86266,-0.58733 1.412,-0.588h14c0.55,0 1.021,0.196 1.413,0.588c0.392,0.392 0.58767,0.86266 0.587,1.412v14c0,0.55 -0.19566,1.021 -0.587,1.413c-0.39134,0.392 -0.86234,0.58766 -1.413,0.587z" fill-opacity="0.00392" fill="#000000"/></g></g></svg>