<svg version="1.1" xmlns="http://www.w3.org/2000/svg" xmlns:xlink="http://www.w3.org/1999/xlink" width="18" height="18.00001" viewBox="0,0,18,18.00001"><g transform="translate(-311,-171)"><g stroke="none" stroke-miterlimit="10"><path d="M313,189c-0.55,0 -1.02067,-0.19567 -1.412,-0.587c-0.39133,-0.39133 -0.58733,-0.86233 -0.588,-1.413v-14c0,-0.55 0.196,-1.02067 0.588,-1.412c0.392,-0.39133 0.86267,-0.58733 1.412,-0.588h14c0.55,0 1.021,0.196 1.413,0.588c0.392,0.392 0.58767,0.86267 0.587,1.412v14c0,0.55 -0.19567,1.021 -0.587,1.413c-0.39133,0.392 -0.86233,0.58767 -1.413,0.587h-3c-0.28333,0 -0.52067,-0.096 -0.712,-0.288c-0.19133,-0.192 -0.28733,-0.42933 -0.288,-0.712c-0.00067,-0.28267 0.09533,-0.52 0.288,-0.712c0.19267,-0.192 0.43,-0.288 0.712,-0.288h3v-12h-14v12h3c0.28333,0 0.521,0.096 0.713,0.288c0.192,0.192 0.28767,0.42933 0.287,0.712c-0.00067,0.28267 -0.09667,0.52033 -0.288,0.713c-0.19133,0.19267 -0.42867,0.28833 -0.712,0.287zM319,188v-5.15l-0.875,0.875c-0.2,0.2 -0.43733,0.296 -0.712,0.288c-0.27467,-0.008 -0.51233,-0.11233 -0.713,-0.313c-0.18333,-0.2 -0.279,-0.43333 -0.287,-0.7c-0.008,-0.26667 0.08767,-0.5 0.287,-0.7l2.6,-2.6c0.1,-0.1 0.20833,-0.17067 0.325,-0.212c0.11667,-0.04133 0.24167,-0.06233 0.375,-0.063c0.13333,-0.00067 0.25833,0.02033 0.375,0.063c0.11667,0.04267 0.225,0.11333 0.325,0.212l2.6,2.6c0.2,0.2 0.29567,0.43333 0.287,0.7c-0.00867,0.26667 -0.10433,0.5 -0.287,0.7c-0.2,0.2 -0.43733,0.30433 -0.712,0.313c-0.27467,0.00867 -0.51233,-0.08733 -0.713,-0.288l-0.875,-0.875v5.15c0,0.28333 -0.096,0.521 -0.288,0.713c-0.192,0.192 -0.42933,0.28767 -0.712,0.287c-0.28267,-0.00067 -0.52,-0.09667 -0.712,-0.288c-0.192,-0.19133 -0.288,-0.42867 -0.288,-0.712" fill="#ffffff"/><path d="M313,189c-0.55,0 -1.02066,-0.19566 -1.412,-0.587c-0.39134,-0.39133 -0.58733,-0.86234 -0.588,-1.413v-14c0,-0.55 0.196,-1.02067 0.588,-1.412c0.392,-0.39133 0.86266,-0.58733 1.412,-0.588h14c0.55,0 1.021,0.196 1.413,0.588c0.392,0.392 0.58767,0.86266 0.587,1.412v14c0,0.55 -0.19566,1.021 -0.587,1.413c-0.39134,0.392 -0.86234,0.58766 -1.413,0.587z" fill-opacity="0.00392" fill="#000000"/></g></g></svg>