<svg version="1.1" xmlns="http://www.w3.org/2000/svg" xmlns:xlink="http://www.w3.org/1999/xlink" width="18.54174" height="18.025" viewBox="0,0,18.54174,18.025"><g transform="translate(-310.48334,-170.975)"><g stroke="none" stroke-miterlimit="10"><path d="M325.85,187.95l-4.425,-4.425l2.1,-2.1l4.425,4.425c0.28333,0.28333 0.425,0.63333 0.425,1.05c0,0.41667 -0.14167,0.76667 -0.425,1.05c-0.28333,0.28333 -0.63333,0.425 -1.05,0.425c-0.41667,0 -0.76667,-0.14167 -1.05,-0.425M311.625,186.9c0,-0.41667 0.14167,-0.76667 0.425,-1.05l5.85,-5.85l-1.7,-1.7c-0.18333,0.18333 -0.41667,0.275 -0.7,0.275c-0.28333,0 -0.51667,-0.09167 -0.7,-0.275l-0.575,-0.575v2.25c0,0.23333 -0.1,0.39167 -0.3,0.475c-0.2,0.08333 -0.38333,0.04167 -0.55,-0.125l-2.725,-2.725c-0.16667,-0.16667 -0.20833,-0.35 -0.125,-0.55c0.08333,-0.2 0.24167,-0.3 0.475,-0.3h2.25l-0.55,-0.55c-0.2,-0.2 -0.3,-0.43333 -0.3,-0.7c0,-0.26667 0.1,-0.5 0.3,-0.7l2.85,-2.85c0.33333,-0.33333 0.69167,-0.575 1.075,-0.725c0.38333,-0.15 0.775,-0.225 1.175,-0.225c0.33333,0 0.646,0.05 0.938,0.15c0.292,0.1 0.57933,0.25 0.862,0.45c0.13333,0.08333 0.20433,0.2 0.213,0.35c0.00867,0.15 -0.04567,0.28333 -0.163,0.4l-1.9,1.9l0.55,0.55c0.18333,0.18333 0.275,0.41667 0.275,0.7c0,0.28333 -0.09167,0.51667 -0.275,0.7l1.7,1.7l2.25,-2.25c-0.06667,-0.18333 -0.12067,-0.375 -0.162,-0.575c-0.04133,-0.2 -0.06233,-0.4 -0.063,-0.6c0,-0.98333 0.33767,-1.81267 1.013,-2.488c0.67533,-0.67533 1.50433,-1.01267 2.487,-1.012c0.13333,0 0.25833,0.00433 0.375,0.013c0.11667,0.00867 0.23333,0.02933 0.35,0.062c0.15,0.05 0.246,0.15433 0.288,0.313c0.042,0.15867 0.00433,0.296 -0.113,0.412l-1.625,1.625c-0.1,0.1 -0.15,0.21667 -0.15,0.35c0,0.13333 0.05,0.25 0.15,0.35l1.1,1.1c0.1,0.1 0.21667,0.15 0.35,0.15c0.13333,0 0.25,-0.05 0.35,-0.15l1.625,-1.625c0.11667,-0.11667 0.25433,-0.15833 0.413,-0.125c0.15867,0.03333 0.26267,0.13333 0.312,0.3c0.03333,0.11667 0.05433,0.23333 0.063,0.35c0.00867,0.11667 0.01267,0.24167 0.012,0.375c0,0.98333 -0.33733,1.81233 -1.012,2.487c-0.67467,0.67467 -1.504,1.01233 -2.488,1.013c-0.2,0 -0.4,-0.01667 -0.6,-0.05c-0.2,-0.03333 -0.39167,-0.09167 -0.575,-0.175l-10.2,10.2c-0.28333,0.28333 -0.63333,0.425 -1.05,0.425c-0.41667,0 -0.76667,-0.14167 -1.05,-0.425c-0.28333,-0.28333 -0.425,-0.63333 -0.425,-1.05" fill="#ffffff"/><path d="M313,189c-0.55,0 -1.02066,-0.19566 -1.412,-0.587c-0.39134,-0.39133 -0.58733,-0.86234 -0.588,-1.413v-14c0,-0.55 0.196,-1.02067 0.588,-1.412c0.392,-0.39133 0.86266,-0.58733 1.412,-0.588h14c0.55,0 1.021,0.196 1.413,0.588c0.392,0.392 0.58767,0.86266 0.587,1.412v14c0,0.55 -0.19566,1.021 -0.587,1.413c-0.39134,0.392 -0.86234,0.58766 -1.413,0.587z" fill-opacity="0.00392" fill="#000000"/></g></g></svg>