<svg version="1.1" xmlns="http://www.w3.org/2000/svg" xmlns:xlink="http://www.w3.org/1999/xlink" width="18" height="18.96337" viewBox="0,0,18,18.96337"><g transform="translate(-311,-170.51163)"><g stroke="none" stroke-miterlimit="10"><path d="M317.55,180l7.35,7.35c0.25,0.25 0.371,0.54167 0.363,0.875c-0.008,0.33333 -0.13733,0.625 -0.388,0.875c-0.25067,0.25 -0.54233,0.375 -0.875,0.375c-0.33267,0 -0.62433,-0.125 -0.875,-0.375l-7.7,-7.675c-0.2,-0.2 -0.35,-0.425 -0.45,-0.675c-0.1,-0.25 -0.15,-0.5 -0.15,-0.75c0,-0.25 0.05,-0.5 0.15,-0.75c0.1,-0.25 0.25,-0.475 0.45,-0.675l7.7,-7.7c0.25,-0.25 0.546,-0.371 0.888,-0.363c0.342,0.008 0.63767,0.13733 0.887,0.388c0.24933,0.25067 0.37433,0.54233 0.375,0.875c0.00067,0.33267 -0.12433,0.62433 -0.375,0.875z" fill="#ffffff"/><path d="M313,189c-0.55,0 -1.02067,-0.19567 -1.412,-0.587c-0.39133,-0.39133 -0.58733,-0.86233 -0.588,-1.413v-14c0,-0.55 0.196,-1.02067 0.588,-1.412c0.392,-0.39133 0.86267,-0.58733 1.412,-0.588h14c0.55,0 1.021,0.196 1.413,0.588c0.392,0.392 0.58767,0.86267 0.587,1.412v14c0,0.55 -0.19567,1.021 -0.587,1.413c-0.39133,0.392 -0.86233,0.58767 -1.413,0.587z" fill-opacity="0.00392" fill="#000000"/></g></g></svg>