<svg version="1.1" xmlns="http://www.w3.org/2000/svg" xmlns:xlink="http://www.w3.org/1999/xlink" width="16.36" height="16.425" viewBox="0,0,16.36,16.425"><g transform="translate(-311.82,-171.05416)"><g fill="#aaaaff" stroke="none" stroke-miterlimit="10"><path d="M316,186.47917v-5h-3.425c-0.31667,0 -0.54167,-0.14167 -0.675,-0.425c-0.13333,-0.28333 -0.1,-0.55 0.1,-0.8l7.225,-8.825c0.2,-0.25 0.45833,-0.375 0.775,-0.375c0.31667,0 0.575,0.125 0.775,0.375l7.225,8.825c0.2,0.25 0.23333,0.51667 0.1,0.8c-0.13333,0.28333 -0.35833,0.425 -0.675,0.425h-3.425v5c0,0.28333 -0.096,0.521 -0.288,0.713c-0.192,0.192 -0.42933,0.28767 -0.712,0.287h-6c-0.28333,0 -0.52067,-0.096 -0.712,-0.288c-0.19133,-0.192 -0.28733,-0.42933 -0.288,-0.712"/></g></g></svg>