<svg version="1.1" xmlns="http://www.w3.org/2000/svg" xmlns:xlink="http://www.w3.org/1999/xlink" width="18" height="18" viewBox="0,0,18,18"><g transform="translate(-311,-171)"><g stroke="none" stroke-miterlimit="10"><path d="M316,185.175v-10.35c0,-0.28333 0.1,-0.521 0.3,-0.713c0.2,-0.192 0.43333,-0.28767 0.7,-0.287c0.08333,0 0.171,0.01233 0.263,0.037c0.092,0.02467 0.17933,0.06233 0.262,0.113l8.15,5.175c0.15,0.1 0.26267,0.225 0.338,0.375c0.07533,0.15 0.11267,0.30833 0.112,0.475c-0.00067,0.16667 -0.038,0.325 -0.112,0.475c-0.074,0.15 -0.18667,0.275 -0.338,0.375l-8.15,5.175c-0.08333,0.05 -0.17067,0.08767 -0.262,0.113c-0.09133,0.02533 -0.179,0.03767 -0.263,0.037c-0.26667,0 -0.5,-0.096 -0.7,-0.288c-0.2,-0.192 -0.3,-0.42933 -0.3,-0.712" fill="#ffffff"/><path d="M313,189c-0.55,0 -1.02067,-0.19567 -1.412,-0.587c-0.39133,-0.39133 -0.58733,-0.86233 -0.588,-1.413v-14c0,-0.55 0.196,-1.02067 0.588,-1.412c0.392,-0.39133 0.86267,-0.58733 1.412,-0.588h14c0.55,0 1.021,0.196 1.413,0.588c0.392,0.392 0.58767,0.86267 0.587,1.412v14c0,0.55 -0.19567,1.021 -0.587,1.413c-0.39133,0.392 -0.86233,0.58767 -1.413,0.587z" fill-opacity="0.00392" fill="#000000"/></g></g></svg>